<?xml version="1.0" standalone="no"?>
<!DOCTYPE svg PUBLIC "-//W3C//DTD SVG 20010904//EN"
 "http://www.w3.org/TR/2001/REC-SVG-20010904/DTD/svg10.dtd">
<svg version="1.0" xmlns="http://www.w3.org/2000/svg"
 width="1600.000000pt" height="1600.000000pt" viewBox="0 0 1600.000000 1600.000000"
 preserveAspectRatio="xMidYMid meet">
<metadata>
Created by potrace 1.11, written by Peter Selinger 2001-2013
</metadata>
<g transform="translate(0.000000,1600.000000) scale(0.100000,-0.100000)"
fill="#000000" stroke="none">
<path d="M7795 12348 c-202 -4 -384 -12 -415 -18 -30 -7 -155 -41 -278 -76
-262 -76 -654 -223 -1049 -392 l-282 -121 -163 -127 c-90 -70 -186 -146 -215
-168 -28 -23 -115 -97 -194 -166 -78 -69 -197 -172 -263 -228 -185 -158 -226
-202 -389 -410 -84 -107 -185 -235 -224 -285 -106 -134 -151 -204 -241 -372
-85 -161 -121 -227 -202 -375 -28 -52 -60 -117 -71 -145 -11 -27 -57 -221
-103 -430 -68 -309 -86 -407 -95 -525 -6 -80 -20 -264 -32 -410 -26 -330 -25
-376 6 -652 42 -356 53 -441 66 -478 48 -142 185 -514 204 -555 35 -75 91
-197 147 -320 96 -209 117 -243 438 -670 178 -237 337 -446 354 -466 41 -47
922 -751 972 -777 21 -11 170 -72 331 -136 661 -262 622 -248 963 -351 85 -26
189 -57 230 -70 173 -56 789 -82 1455 -62 352 11 372 13 453 36 37 10 225 62
417 116 527 146 456 119 895 333 102 49 266 129 364 176 99 48 195 101 215
118 20 17 170 153 334 302 l299 271 330 395 331 395 223 450 223 450 41 235
c23 129 50 285 60 345 11 61 26 178 35 260 9 83 27 240 40 350 23 196 23 205
9 415 -29 439 -95 821 -190 1113 -33 100 -76 198 -152 346 -100 194 -129 247
-296 530 -45 77 -121 179 -230 310 -141 170 -361 451 -460 589 -18 26 -84 82
-165 140 -73 53 -170 124 -215 156 -141 103 -437 300 -541 361 -55 32 -143 84
-196 116 -115 69 -155 86 -404 174 -104 36 -219 77 -255 90 -36 13 -78 28 -95
33 -16 6 -82 29 -144 51 -153 55 -192 64 -426 101 l-200 32 -445 1 c-245 1
-607 -1 -805 -5z m1415 -411 c171 -28 227 -44 445 -122 72 -25 180 -64 240
-85 406 -141 358 -121 589 -257 191 -113 417 -263 691 -461 194 -139 202 -146
280 -250 168 -223 261 -341 416 -527 120 -145 146 -183 272 -400 173 -300 276
-513 325 -670 80 -256 138 -612 162 -995 10 -161 9 -174 -30 -515 -35 -311
-64 -505 -130 -852 -18 -97 -29 -121 -214 -491 l-194 -389 -305 -364 -305
-365 -303 -277 -304 -278 -145 -70 c-80 -39 -185 -90 -235 -114 -49 -23 -182
-87 -295 -142 -168 -82 -232 -107 -355 -141 -82 -23 -166 -46 -185 -52 -19 -6
-154 -43 -300 -84 l-265 -74 -200 -6 c-110 -4 -241 -9 -292 -12 -161 -8 -493
-6 -653 5 -85 6 -218 13 -295 17 -151 7 -177 13 -440 94 -93 29 -201 61 -240
72 -38 11 -158 56 -265 98 -107 43 -316 126 -465 186 l-270 107 -432 345 -431
345 -322 428 c-228 305 -330 449 -354 501 -18 40 -47 102 -64 138 -16 36 -44
97 -62 135 -18 39 -46 99 -62 135 -29 61 -45 105 -155 410 -42 119 -46 140
-84 445 -31 247 -39 338 -34 400 3 44 12 166 20 270 40 514 43 547 85 735 46
204 58 257 90 405 22 98 34 126 160 360 211 390 224 413 333 551 62 79 171
217 242 309 114 145 150 183 290 304 88 76 230 198 315 272 85 74 229 192 320
264 l165 129 265 114 c146 62 301 127 345 143 135 51 134 50 300 115 66 25
177 62 255 84 19 6 98 29 175 52 l140 42 260 6 c143 3 503 5 800 5 l540 0 165
-28z"/>
<path d="M6164 10475 c-70 -35 -263 -258 -280 -326 -26 -98 22 -189 121 -230
l55 -23 0 -601 0 -601 -67 -34 c-121 -63 -156 -107 -156 -200 -1 -69 33 -150
78 -188 18 -15 58 -44 89 -65 l56 -38 0 -960 -1 -960 22 -39 c42 -74 114 -107
213 -95 44 5 116 30 256 90 107 45 326 138 485 205 160 67 376 158 480 202
105 45 226 95 270 113 44 18 102 43 130 55 l49 21 -39 18 c-74 33 -125 113
-125 197 0 48 46 128 91 160 30 21 56 29 107 33 l67 6 -150 107 c-82 59 -163
116 -180 128 -16 12 -313 223 -660 469 l-630 448 0 48 0 47 100 55 c55 30 161
86 235 125 74 39 162 86 195 103 212 113 373 199 460 245 299 157 348 185 329
188 -93 16 -154 57 -185 127 -57 124 24 267 162 283 l53 7 -129 54 c-72 30
-200 83 -285 118 -85 35 -218 91 -295 123 -77 32 -189 78 -250 103 -60 25
-173 72 -250 104 l-140 58 -5 111 c-6 132 -24 169 -104 209 -63 32 -109 32
-172 0z m466 -813 c80 -33 217 -90 305 -127 88 -37 211 -87 273 -113 61 -25
112 -48 112 -51 0 -6 -42 -30 -235 -131 -66 -35 -237 -126 -379 -202 -143 -76
-261 -138 -263 -138 -2 0 -3 187 -3 416 l0 416 23 -5 c12 -3 87 -32 167 -65z
m238 -2068 c229 -164 488 -347 574 -408 86 -61 157 -113 157 -116 0 -3 -68
-34 -152 -69 -225 -94 -596 -251 -809 -342 -102 -43 -189 -79 -192 -79 -3 0
-6 295 -6 655 0 360 2 655 6 655 3 0 193 -133 422 -296z"/>
<path d="M10354 10465 c-80 -40 -98 -77 -104 -209 l-5 -111 -135 -56 c-74 -31
-198 -82 -275 -114 -77 -32 -196 -81 -265 -110 -69 -28 -186 -77 -260 -108
-74 -31 -188 -78 -254 -105 l-119 -50 37 -17 c110 -52 148 -199 78 -300 -36
-52 -94 -85 -151 -85 -27 0 -41 -4 -35 -9 9 -9 160 -91 379 -206 95 -50 236
-125 470 -250 33 -17 121 -64 195 -103 74 -39 180 -95 235 -125 l100 -55 0
-47 0 -48 -630 -448 c-346 -246 -643 -457 -660 -469 -16 -12 -97 -69 -180
-128 l-150 -107 63 -7 c118 -13 191 -80 200 -184 8 -94 -49 -191 -123 -210
-14 -3 -25 -9 -25 -13 0 -4 42 -24 93 -45 90 -38 233 -98 822 -346 160 -67
378 -160 485 -205 140 -60 212 -85 256 -90 99 -12 171 21 213 95 l22 39 -1
960 0 960 56 38 c31 21 71 50 89 65 45 38 79 119 78 188 0 93 -35 137 -156
200 l-67 34 0 601 0 601 55 23 c99 41 147 132 121 230 -9 37 -36 75 -121 174
-152 177 -219 208 -331 152z m-104 -1160 c0 -228 -1 -415 -3 -415 -2 0 -120
62 -263 138 -142 76 -313 167 -379 202 -193 101 -235 125 -235 131 0 3 51 26
113 51 61 26 184 76 272 113 88 37 221 91 295 122 74 30 141 59 150 63 8 5 23
10 33 10 16 0 17 -26 17 -415z m0 -2080 c0 -360 -3 -655 -6 -655 -3 0 -90 36
-192 79 -213 91 -584 248 -809 342 -84 35 -153 66 -152 69 0 3 68 53 152 112
84 59 341 243 572 407 231 165 423 300 428 300 4 1 7 -294 7 -654z"/>
</g>
</svg>
